<?xml version="1.0" encoding="UTF-8" standalone="no"?>
<!DOCTYPE svg PUBLIC "-//W3C//DTD SVG 1.1//EN" "http://www.w3.org/Graphics/SVG/1.1/DTD/svg11.dtd">
<svg width="100%" height="100%" viewBox="0 0 1334 436" version="1.1" xmlns="http://www.w3.org/2000/svg" xmlns:xlink="http://www.w3.org/1999/xlink" xml:space="preserve" xmlns:serif="http://www.serif.com/" style="fill-rule:evenodd;clip-rule:evenodd;stroke-linejoin:round;stroke-miterlimit:2;">
    <g id="mena_health_logo" transform="matrix(1,0,0,0.580892,0,0)">
        <rect x="0" y="0" width="1334" height="750" style="fill:none;"/>
        <clipPath id="_clip1">
            <rect x="0" y="0" width="1334" height="750"/>
        </clipPath>
        <g clip-path="url(#_clip1)">
            <g transform="matrix(1.62128,0,0,2.79102,-181.046,154.989)">
                <g transform="matrix(154.887,0,0,154.887,696.766,195.645)">
                </g>
                <text x="99.982px" y="195.645px" style="font-family:'ArialMT', 'Arial', sans-serif;font-size:154.887px;fill:rgb(18,15,11);">HEAL<tspan x="498.846px 541.879px " y="195.645px 195.645px ">  </tspan>H</text>
            </g>
            <g transform="matrix(1.62128,0,0,2.79102,40.3964,-236.606)">
                <g transform="matrix(154.887,0,0,154.887,547.475,195.645)">
                </g>
                <text x="99.982px" y="195.645px" style="font-family:'ArialMT', 'Arial', sans-serif;font-size:154.887px;fill:rgb(18,15,11);">MENA</text>
            </g>
            <g transform="matrix(1.23351,0,0,2.12347,-26.6555,-380.028)">
                <rect x="794.792" y="178.966" width="3.533" height="330.139" style="fill:rgb(18,15,11);"/>
            </g>
            <g transform="matrix(11.5094,0,0,1.45599,-8143.16,-224.443)">
                <rect x="794.792" y="178.966" width="3.533" height="330.139" style="fill:rgb(5,110,115);"/>
            </g>
            <g transform="matrix(11.5094,0,0,0.577129,-7854.25,222.99)">
                <rect x="794.792" y="178.966" width="3.533" height="330.139" style="fill:rgb(5,110,115);"/>
            </g>
            <g transform="matrix(11.5094,0,0,0.577129,-7935.56,222.99)">
                <rect x="794.792" y="178.966" width="3.533" height="330.139" style="fill:rgb(5,110,115);"/>
            </g>
            <g transform="matrix(11.5094,0,0,0.628113,-8011.6,197.034)">
                <rect x="794.792" y="178.966" width="3.533" height="330.139" style="fill:rgb(5,110,115);"/>
            </g>
            <g transform="matrix(11.5094,0,0,0.211696,-8011.6,517.92)">
                <rect x="794.792" y="178.966" width="3.533" height="330.139" style="fill:rgb(5,110,115);"/>
            </g>
            <g transform="matrix(11.5094,0,0,0.211696,-8011.6,636.906)">
                <rect x="794.792" y="178.966" width="3.533" height="330.139" style="fill:rgb(5,110,115);"/>
            </g>
            <g transform="matrix(11.5094,0,0,0.628113,-8074.98,197.034)">
                <rect x="794.792" y="178.966" width="3.533" height="330.139" style="fill:rgb(5,110,115);"/>
            </g>
            <g transform="matrix(11.5094,0,0,0.211205,-8074.98,166.776)">
                <rect x="794.792" y="178.966" width="3.533" height="330.139" style="fill:rgb(5,110,115);"/>
            </g>
            <g transform="matrix(7.04747e-16,19.8133,-0.369462,3.89453e-17,1400.12,-15438)">
                <rect x="794.792" y="178.966" width="3.533" height="330.139" style="fill:rgb(5,110,115);"/>
            </g>
            <g transform="matrix(93.2814,0,0,0.212001,-73134.9,408.878)">
                <rect x="794.792" y="178.966" width="3.533" height="330.139" style="fill:rgb(5,110,115);"/>
            </g>
            <g id="vecteezy_world-health-day-with-medical-symbol_106540.svg" transform="matrix(0.128783,0,0,0.278528,681.679,546.318)">
                <g transform="matrix(1,0,0,1,-673.556,-555.5)">
                    <clipPath id="_clip2">
                        <rect x="0" y="0" width="1347.11" height="1111"/>
                    </clipPath>
                    <g clip-path="url(#_clip2)">
                        <g transform="matrix(2.28401,0,0,2.47715,-963.854,-616.562)">
                            <g>
                                <g>
                                    <path d="M1010.6,337.1C1011.3,336.3 1011.8,335.6 1011.8,335.6C929.3,335.6 812.1,290.2 812.1,290.2C812.1,290.2 781.8,271.8 758.6,294.5C741.7,311.2 729,323.7 722.3,330.3L722.3,301C734.4,298.5 743.5,288.2 743.5,275.5C743.5,260.8 731.7,248.9 716.9,248.9C702.2,248.9 690.3,260.8 690.3,275.5C690.3,288.3 699.6,298.5 711.6,301L711.6,330.5C704.9,324 692.2,311.4 675.1,294.6C652.2,271.9 621.7,290.3 621.7,290.3C621.7,290.3 504.4,335.7 422,335.7C422,335.7 422.4,336.4 423.3,337.2C448.3,338.8 502.7,339.7 557,323.8C557,323.8 505.6,348.6 424.3,338.4C432.2,346.5 464.8,370.6 551.5,341.7C569.3,335.8 569.3,335.8 557.5,341.7C557.5,341.7 522.6,362.4 463.7,368.3C463.7,368.3 465.4,372.7 471.9,377C487.9,376.4 537.8,372.5 586.1,347.7C586.1,347.7 543.3,380.2 472.5,377.3C486.7,386 522.1,393.1 608.5,357.4C608.5,357.4 619.4,354.4 611.8,358.9C604.1,363.3 549.3,386.8 506.3,390C506.3,390 511.4,394.4 522.5,397.5C545.7,393.5 591.2,383.8 633.7,363C633.7,363 595.2,389.4 524.5,398C545.1,403 584.4,403.8 649.8,372C649.8,372 658,370.3 651.7,373.5C645.6,376.8 603.8,399.7 567.7,403.2C564.9,403.6 577,407.6 596,407.8C612.1,404 640.6,395.2 666.9,376.7C666.9,376.7 644.6,399.3 602.5,407.6C624.2,406.8 653,400.6 679.4,379.4C679.4,379.4 700.8,393.6 711.7,398.5L711.7,484.4C702.9,480.5 694.2,476.9 686.2,472.7C679.5,469.3 673.1,465.2 669.1,461.3C667.1,459.3 663.1,450.9 668.2,446.3C672.6,444.4 680.1,445.5 684.7,447.1L684.8,446.8C694,448.2 702.1,444 703.9,433.7C705.5,423.3 701.5,416.2 692.6,414.5L692.6,414.2C681.8,412.2 672.3,411.7 659.9,416.1C653.9,418.4 647.5,423 643.5,429.4C639.4,435.8 638,442.9 637.6,448.7C637.5,451.7 637.6,454.5 637.7,457.2C637.9,459.8 639.1,465.2 640.6,467.9C643.6,474.6 647.9,479 652,482.4C660.3,489 668.4,492.5 676.4,495.8C681.4,497.9 686.3,499.4 691.2,501.2C687.6,504.3 683.2,508 680.6,515.1C677.8,522.7 680.9,531.1 684.2,535.3C686.9,538.8 689.2,541.9 692.1,545.4C696.8,551.2 702.1,556.5 707.3,561.5C704.3,565.3 701.4,569.4 698.9,574.5C694.7,583.2 694.1,595.5 700.8,603.9C704,608.1 707.5,611.7 711.1,614.8C710.8,615.1 710.5,615.4 710.2,615.8C704.5,621.6 698.2,627.2 693.5,634.8C691.3,638.6 689.3,643.3 690,648.5C690.7,653.5 694.3,657.6 697,660.2C701.5,665 706.7,669.2 711.7,673.4L711.7,684.4C709.8,686.9 708.5,689.6 708.1,692.5C708.8,689.9 710.4,687.2 711.7,684.6L711.7,696.1L722.3,696.1L722.3,684C724.8,687.8 726.4,692.3 725.4,697.4C726.2,693.3 726,688.8 724.3,685C723.8,683.8 723,682.9 722.3,681.8L722.3,674.5C727.8,669.7 733.5,665 738.6,659.5C741.2,657 744.8,653 745.4,647.8C746,642.6 744,637.9 741.7,634.1C736.8,626.6 730.5,621.1 724.7,615.3C724.5,615.2 724.4,615 724.2,614.8C727.6,611.7 730.9,608.3 734,604.2C740.6,595.7 739.9,583.5 735.4,574.8C732.8,569.6 729.7,565.5 726.5,561.6C731.7,556.3 737.1,550.8 741.8,544.8C744.7,541.3 747,538.3 749.6,534.6C752.7,530.5 755.9,522 752.9,514.4C750.4,507.6 746.2,504.2 742.7,501.2C747.5,499.4 752.1,497.9 756.9,495.8C764.8,492.4 772.9,488.7 781,482C785,478.6 789.3,473.9 792.3,467.3C793.7,464.5 794.8,459 794.8,456.6C795.1,453.8 795.1,451.1 795,448.1C794.7,442.2 793,435.3 788.9,428.8C784.7,422.5 778.1,418 772.2,415.8C759.8,411.6 750.4,412.3 739.5,414.4L739.6,414.7C730.7,416.5 726.8,423.7 728.5,434C730.5,444.4 738.6,448.4 747.8,446.8L747.8,447.1C752.4,445.5 759.9,444.2 764.4,446.1C769.4,450.6 765.8,459.1 763.7,461.1C759.8,465.3 753.5,469.1 746.9,472.6C739.3,476.8 731,480.5 722.5,484.3L722.5,398.6C733.5,393.6 754.7,379.5 754.7,379.5C781.1,400.7 809.8,406.8 831.5,407.7C789.6,399.4 767.1,376.8 767.1,376.8C793.5,395.4 821.9,404.1 838,407.9C857.1,407.7 869.1,403.7 866.3,403.3C830.3,399.7 788.4,376.9 782.3,373.6C776.1,370.5 784.3,372.1 784.3,372.1C849.7,403.9 889,403.1 909.5,398.1C838.9,389.5 800.4,363.1 800.4,363.1C842.7,383.9 888.3,393.6 911.5,397.6C922.6,394.5 927.7,390.1 927.7,390.1C884.7,386.9 830,363.4 822.3,359C814.6,354.6 825.5,357.5 825.5,357.5C911.7,393.2 947.2,386.1 961.3,377.4C890.6,380.3 847.9,347.8 847.9,347.8C896.2,372.6 945.9,376.5 961.9,377.1C968.5,372.9 970.2,368.4 970.2,368.4C911.3,362.5 876.3,341.8 876.3,341.8C864.6,335.9 864.6,335.9 882.2,341.8C969,370.7 1001.5,346.6 1009.6,338.5C928.2,348.7 876.7,323.9 876.7,323.9C931.2,339.7 985.5,338.7 1010.6,337.1ZM698.4,524.8C697,522.2 697.5,521.8 697.7,521.6C698.3,519.8 705.2,515.2 711.6,512.5L711.6,543.1C709.3,540.4 706.8,537.6 704.8,534.6C702.7,531.7 700.4,528 698.4,524.8ZM709.3,597.8C705.8,592.8 706.5,585.8 709.8,580.3C710.3,579.4 711.1,578.7 711.7,577.9L711.7,600.8C711,599.8 710,598.8 709.3,597.8ZM700.1,657C693.9,651.1 693.8,644.2 698.6,638.2C702.2,633.4 706.9,629.4 711.7,625.2L711.7,669.4C707.8,665.4 703.6,661.4 700.1,657ZM736.6,637.5C741.7,643.6 741.6,650.4 735.5,656.3C731.5,661.4 726.8,666.1 722.3,670.8L722.3,623.9C727.6,628.1 732.8,632.4 736.6,637.5ZM725.5,598C724.7,599.5 723.4,600.8 722.3,602.2L722.3,577.6C723,578.6 724,579.5 724.6,580.5C728,586 728.9,592.9 725.5,598ZM735.2,524.1C733.3,527.4 730.9,531.1 728.9,534.1C726.9,537 724.5,539.7 722.3,542.5L722.3,512.4C728.7,514.9 735.2,519.2 735.8,520.9C736.1,521.1 736.5,521.6 735.2,524.1Z" style="fill-rule:nonzero;"/>
                                    <path d="M1010.6,337.1C1011.3,336.3 1011.8,335.6 1011.8,335.6C929.3,335.6 812.1,290.2 812.1,290.2C812.1,290.2 781.8,271.8 758.6,294.5C741.7,311.2 729,323.7 722.3,330.3L722.3,301C734.4,298.5 743.5,288.2 743.5,275.5C743.5,260.8 731.7,248.9 716.9,248.9C702.2,248.9 690.3,260.8 690.3,275.5C690.3,288.3 699.6,298.5 711.6,301L711.6,330.5C704.9,324 692.2,311.4 675.1,294.6C652.2,271.9 621.7,290.3 621.7,290.3C621.7,290.3 504.4,335.7 422,335.7C422,335.7 422.4,336.4 423.3,337.2C448.3,338.8 502.7,339.7 557,323.8C557,323.8 505.6,348.6 424.3,338.4C432.2,346.5 464.8,370.6 551.5,341.7C569.3,335.8 569.3,335.8 557.5,341.7C557.5,341.7 522.6,362.4 463.7,368.3C463.7,368.3 465.4,372.7 471.9,377C487.9,376.4 537.8,372.5 586.1,347.7C586.1,347.7 543.3,380.2 472.5,377.3C486.7,386 522.1,393.1 608.5,357.4C608.5,357.4 619.4,354.4 611.8,358.9C604.1,363.3 549.3,386.8 506.3,390C506.3,390 511.4,394.4 522.5,397.5C545.7,393.5 591.2,383.8 633.7,363C633.7,363 595.2,389.4 524.5,398C545.1,403 584.4,403.8 649.8,372C649.8,372 658,370.3 651.7,373.5C645.6,376.8 603.8,399.7 567.7,403.2C564.9,403.6 577,407.6 596,407.8C612.1,404 640.6,395.2 666.9,376.7C666.9,376.7 644.6,399.3 602.5,407.6C624.2,406.8 653,400.6 679.4,379.4C679.4,379.4 700.8,393.6 711.7,398.5L711.7,484.4C702.9,480.5 694.2,476.9 686.2,472.7C679.5,469.3 673.1,465.2 669.1,461.3C667.1,459.3 663.1,450.9 668.2,446.3C672.6,444.4 680.1,445.5 684.7,447.1L684.8,446.8C694,448.2 702.1,444 703.9,433.7C705.5,423.3 701.5,416.2 692.6,414.5L692.6,414.2C681.8,412.2 672.3,411.7 659.9,416.1C653.9,418.4 647.5,423 643.5,429.4C639.4,435.8 638,442.9 637.6,448.7C637.5,451.7 637.6,454.5 637.7,457.2C637.9,459.8 639.1,465.2 640.6,467.9C643.6,474.6 647.9,479 652,482.4C660.3,489 668.4,492.5 676.4,495.8C681.4,497.9 686.3,499.4 691.2,501.2C687.6,504.3 683.2,508 680.6,515.1C677.8,522.7 680.9,531.1 684.2,535.3C686.9,538.8 689.2,541.9 692.1,545.4C696.8,551.2 702.1,556.5 707.3,561.5C704.3,565.3 701.4,569.4 698.9,574.5C694.7,583.2 694.1,595.5 700.8,603.9C704,608.1 707.5,611.7 711.1,614.8C710.8,615.1 710.5,615.4 710.2,615.8C704.5,621.6 698.2,627.2 693.5,634.8C691.3,638.6 689.3,643.3 690,648.5C690.7,653.5 694.3,657.6 697,660.2C701.5,665 706.7,669.2 711.7,673.4L711.7,684.4C709.8,686.9 708.5,689.6 708.1,692.5C708.8,689.9 710.4,687.2 711.7,684.6L711.7,696.1L722.3,696.1L722.3,684C724.8,687.8 726.4,692.3 725.4,697.4C726.2,693.3 726,688.8 724.3,685C723.8,683.8 723,682.9 722.3,681.8L722.3,674.5C727.8,669.7 733.5,665 738.6,659.5C741.2,657 744.8,653 745.4,647.8C746,642.6 744,637.9 741.7,634.1C736.8,626.6 730.5,621.1 724.7,615.3C724.5,615.2 724.4,615 724.2,614.8C727.6,611.7 730.9,608.3 734,604.2C740.6,595.7 739.9,583.5 735.4,574.8C732.8,569.6 729.7,565.5 726.5,561.6C731.7,556.3 737.1,550.8 741.8,544.8C744.7,541.3 747,538.3 749.6,534.6C752.7,530.5 755.9,522 752.9,514.4C750.4,507.6 746.2,504.2 742.7,501.2C747.5,499.4 752.1,497.9 756.9,495.8C764.8,492.4 772.9,488.7 781,482C785,478.6 789.3,473.9 792.3,467.3C793.7,464.5 794.8,459 794.8,456.6C795.1,453.8 795.1,451.1 795,448.1C794.7,442.2 793,435.3 788.9,428.8C784.7,422.5 778.1,418 772.2,415.8C759.8,411.6 750.4,412.3 739.5,414.4L739.6,414.7C730.7,416.5 726.8,423.7 728.5,434C730.5,444.4 738.6,448.4 747.8,446.8L747.8,447.1C752.4,445.5 759.9,444.2 764.4,446.1C769.4,450.6 765.8,459.1 763.7,461.1C759.8,465.3 753.5,469.1 746.9,472.6C739.3,476.8 731,480.5 722.5,484.3L722.5,398.6C733.5,393.6 754.7,379.5 754.7,379.5C781.1,400.7 809.8,406.8 831.5,407.7C789.6,399.4 767.1,376.8 767.1,376.8C793.5,395.4 821.9,404.1 838,407.9C857.1,407.7 869.1,403.7 866.3,403.3C830.3,399.7 788.4,376.9 782.3,373.6C776.1,370.5 784.3,372.1 784.3,372.1C849.7,403.9 889,403.1 909.5,398.1C838.9,389.5 800.4,363.1 800.4,363.1C842.7,383.9 888.3,393.6 911.5,397.6C922.6,394.5 927.7,390.1 927.7,390.1C884.7,386.9 830,363.4 822.3,359C814.6,354.6 825.5,357.5 825.5,357.5C911.7,393.2 947.2,386.1 961.3,377.4C890.6,380.3 847.9,347.8 847.9,347.8C896.2,372.6 945.9,376.5 961.9,377.1C968.5,372.9 970.2,368.4 970.2,368.4C911.3,362.5 876.3,341.8 876.3,341.8C864.6,335.9 864.6,335.9 882.2,341.8C969,370.7 1001.5,346.6 1009.6,338.5C928.2,348.7 876.7,323.9 876.7,323.9C931.2,339.7 985.5,338.7 1010.6,337.1ZM698.4,524.8C697,522.2 697.5,521.8 697.7,521.6C698.3,519.8 705.2,515.2 711.6,512.5L711.6,543.1C709.3,540.4 706.8,537.6 704.8,534.6C702.7,531.7 700.4,528 698.4,524.8ZM709.3,597.8C705.8,592.8 706.5,585.8 709.8,580.3C710.3,579.4 711.1,578.7 711.7,577.9L711.7,600.8C711,599.8 710,598.8 709.3,597.8ZM700.1,657C693.9,651.1 693.8,644.2 698.6,638.2C702.2,633.4 706.9,629.4 711.7,625.2L711.7,669.4C707.8,665.4 703.6,661.4 700.1,657ZM736.6,637.5C741.7,643.6 741.6,650.4 735.5,656.3C731.5,661.4 726.8,666.1 722.3,670.8L722.3,623.9C727.6,628.1 732.8,632.4 736.6,637.5ZM725.5,598C724.7,599.5 723.4,600.8 722.3,602.2L722.3,577.6C723,578.6 724,579.5 724.6,580.5C728,586 728.9,592.9 725.5,598ZM735.2,524.1C733.3,527.4 730.9,531.1 728.9,534.1C726.9,537 724.5,539.7 722.3,542.5L722.3,512.4C728.7,514.9 735.2,519.2 735.8,520.9C736.1,521.1 736.5,521.6 735.2,524.1Z" style="fill-rule:nonzero;"/>
                                    <path d="M707.9,696.4C707.6,694.9 708,693.6 708.2,692.2C707.8,693.6 707.6,695 707.9,696.4Z" style="fill-rule:nonzero;"/>
                                </g>
                            </g>
                        </g>
                    </g>
                </g>
            </g>
        </g>
    </g>
</svg>
