<?xml version="1.0" encoding="UTF-8" standalone="no"?>
<!DOCTYPE svg PUBLIC "-//W3C//DTD SVG 1.1//EN" "http://www.w3.org/Graphics/SVG/1.1/DTD/svg11.dtd">
<svg width="100%" height="100%" viewBox="0 0 800 1080" version="1.1" xmlns="http://www.w3.org/2000/svg" xmlns:xlink="http://www.w3.org/1999/xlink" xml:space="preserve" xmlns:serif="http://www.serif.com/" style="fill-rule:evenodd;clip-rule:evenodd;stroke-linecap:round;stroke-linejoin:round;stroke-miterlimit:1.5;">
    <g id="vecteezy_phone-device-smart-vector-app-business-watch-brand-cellphone_7081049.eps" transform="matrix(0.0640158,0,0,0.0640158,400,540)">
        <g transform="matrix(1,0,0,1,-8435.42,-8435.42)">
            <clipPath id="_clip1">
                <rect x="0" y="0" width="16870.8" height="16870.8"/>
            </clipPath>
            <g clip-path="url(#_clip1)">
                <g transform="matrix(4.16667,0,0,4.16667,0,0)">
                    <g transform="matrix(1.22719,0,0,1.22719,-459.493,-453.624)">
                        <path d="M2584.81,3669.05L1463.45,3669.05C1330.18,3669.05 1221.13,3560.01 1221.13,3426.73L1221.13,611.964C1221.13,478.688 1330.18,369.644 1463.45,369.644L2584.81,369.644C2718.09,369.644 2827.13,478.688 2827.13,611.964L2827.13,3426.73C2827.13,3560.01 2718.09,3669.05 2584.81,3669.05Z" style="fill:rgb(193,193,193);fill-rule:nonzero;"/>
                    </g>
                    <g transform="matrix(1.22719,0,0,1.22719,-459.493,-453.624)">
                        <path d="M2754.09,439.004C2796.93,482.767 2823.45,542.571 2823.45,608.276L2823.45,3423.04C2823.45,3556.32 2714.4,3665.36 2581.13,3665.36L1459.77,3665.36C1394.06,3665.36 1334.26,3638.85 1290.49,3596C1334.55,3641.01 1395.88,3669.05 1463.45,3669.05L2584.81,3669.05C2718.09,3669.05 2827.13,3560.01 2827.13,3426.73L2827.13,611.964C2827.13,544.393 2799.09,483.064 2754.09,439.004Z" style="fill:rgb(159,159,160);fill-rule:nonzero;"/>
                    </g>
                    <g transform="matrix(1.22719,0,0,1.22719,-459.493,-453.624)">
                        <path d="M1224.47,3430.06L1224.47,615.297C1224.47,482.021 1333.51,372.978 1466.79,372.978L2588.15,372.978C2653.94,372.978 2713.82,399.565 2757.6,442.513C2713.55,397.611 2652.29,369.644 2584.81,369.644L1463.45,369.644C1330.18,369.644 1221.13,478.688 1221.13,611.964L1221.13,3426.73C1221.13,3494.21 1249.1,3555.47 1294,3599.51C1251.05,3555.74 1224.47,3495.86 1224.47,3430.06Z" style="fill:rgb(234,234,235);fill-rule:nonzero;"/>
                    </g>
                    <g transform="matrix(1.22719,0,0,1.22719,-459.493,-453.624)">
                        <rect x="1221.13" y="706.311" width="1606" height="22" style="fill:rgb(234,234,235);fill-rule:nonzero;"/>
                    </g>
                    <g transform="matrix(1.22719,0,0,1.22719,-459.493,-453.624)">
                        <rect x="1555.32" y="369.644" width="22" height="3299.41" style="fill:rgb(234,234,235);fill-rule:nonzero;"/>
                    </g>
                    <g transform="matrix(1.22719,0,0,1.22719,-459.493,-453.624)">
                        <rect x="2470.95" y="369.644" width="22" height="3299.41" style="fill:rgb(234,234,235);fill-rule:nonzero;"/>
                    </g>
                    <g transform="matrix(1.22719,0,0,1.22719,-459.493,-453.624)">
                        <path d="M2558.81,3648.56L1489.45,3648.56C1356.18,3648.56 1247.13,3539.52 1247.13,3406.24L1247.13,632.449C1247.13,499.173 1356.18,390.13 1489.45,390.13L2558.81,390.13C2692.09,390.13 2801.13,499.173 2801.13,632.449L2801.13,3406.24C2801.13,3539.52 2692.09,3648.56 2558.81,3648.56Z" style="fill:rgb(26,29,34);fill-rule:nonzero;"/>
                    </g>
                    <g transform="matrix(1.22719,0,0,1.22719,-459.503,-453.628)">
                        <path d="M2754.53,728.311L2754.53,728.311L2754.53,3406.85C2754.53,3510.92 2669.39,3596.07 2565.32,3596.07L1482.96,3596.07C1378.89,3596.07 1293.75,3510.92 1293.75,3406.85L1293.75,728.311L1293.74,728.311L1293.74,631.847C1293.74,527.776 1378.89,442.627 1482.96,442.627L1751.55,442.627L1751.55,484.46C1751.55,522.878 1782.99,554.311 1821.4,554.311L2231.7,554.311C2270.12,554.311 2301.55,522.878 2301.55,484.46L2301.55,442.627L2565.31,442.627C2669.38,442.627 2754.53,527.776 2754.53,631.847L2754.53,728.311Z" style="fill:rgb(24,34,45);"/>
                    </g>
                    <g>
                        <g transform="matrix(0.183018,0,0,0.272736,770.338,-249.665)">
                            <path d="M11017.8,3394.68L11092,3326.47C11092,3326.47 11194.4,3418.89 11287.4,3441.66C11316.8,3448.87 11050.2,3408.11 11017.8,3394.68Z" style="fill:rgb(85,158,214);stroke:rgb(85,158,214);stroke-width:1.03px;"/>
                        </g>
                        <g transform="matrix(0.797033,0,0,0.282074,-5971.64,289.786)">
                            <path d="M11033.3,1179.18C11033.3,1298.56 10999,1395.48 10956.7,1395.48L10621.6,1395.48C10579.4,1395.48 10545.1,1298.56 10545.1,1179.18C10545.1,1059.8 10579.4,962.877 10621.6,962.877L10956.7,962.877C10999,962.877 11033.3,1059.8 11033.3,1179.18Z" style="fill:rgb(85,158,214);"/>
                        </g>
                        <g transform="matrix(0.25955,0,0,0.24,-97.1564,0)">
                            <path d="M9446.61,8296.43L9446.61,8583.99C9446.61,8715.65 9347.77,8822.54 9226.03,8822.54L5190.09,8822.54C5068.35,8822.54 4969.51,8715.65 4969.51,8583.99L4969.51,8296.43C4969.51,8164.77 5068.35,8057.88 5190.09,8057.88L9226.03,8057.88C9347.77,8057.88 9446.61,8164.77 9446.61,8296.43Z" style="fill:rgb(33,48,64);"/>
                        </g>
                        <g transform="matrix(0.362021,0,0,0.362021,-1485.55,-294.53)">
                            <g transform="matrix(189.329,0,0,189.329,11110.1,2578.91)">
                            </g>
                            <text x="10962.8px" y="2578.91px" style="font-family:'ArialMT', 'Arial', sans-serif;font-size:189.329px;fill:white;">hi</text>
                        </g>
                        <g transform="matrix(0.206733,0.111778,-0.111778,0.206733,844.933,-1249.95)">
                            <path d="M10877.5,3300.82L10877.2,3319.86L10794.1,3296.47L10799.1,3278.75L10859.1,3295.65L10881.1,3130.7L10899.5,3130.7L10877.5,3300.82Z" style="fill:white;"/>
                        </g>
                        <g transform="matrix(0.206733,0.111778,-0.111778,0.206733,850.202,-1247.37)">
                            <path d="M10852.6,3293.8L10859.1,3295.65L10881.1,3130.7L10899.5,3130.7L10877.5,3300.82L10877.2,3319.86L10852.4,3312.88L10852.6,3301.83L10852.6,3293.8Z" style="fill:white;"/>
                        </g>
                        <g transform="matrix(0.217343,0,0,0.217343,175.038,93.1182)">
                            <g transform="matrix(189.329,0,0,189.329,11615.3,2578.91)">
                            </g>
                            <text x="10962.8px" y="2578.91px" style="font-family:'Arial-ItalicMT', 'Arial', sans-serif;font-style:italic;font-size:189.329px;fill:white;">7:00PM</text>
                        </g>
                    </g>
                    <g transform="matrix(1,0,0,1,0,1146.5)">
                        <g transform="matrix(0.183018,0,0,0.272736,770.338,-249.665)">
                            <path d="M11017.8,3394.68L11092,3326.47C11092,3326.47 11194.4,3418.89 11287.4,3441.66C11316.8,3448.87 11050.2,3408.11 11017.8,3394.68Z" style="fill:rgb(85,158,214);stroke:rgb(85,158,214);stroke-width:1.03px;"/>
                        </g>
                        <g transform="matrix(0.797033,0,0,0.282074,-5971.64,289.786)">
                            <path d="M11033.3,1179.18C11033.3,1298.56 10999,1395.48 10956.7,1395.48L10621.6,1395.48C10579.4,1395.48 10545.1,1298.56 10545.1,1179.18C10545.1,1059.8 10579.4,962.877 10621.6,962.877L10956.7,962.877C10999,962.877 11033.3,1059.8 11033.3,1179.18Z" style="fill:rgb(85,158,214);"/>
                        </g>
                        <g transform="matrix(0.362021,0,0,0.362021,-1485.55,-294.53)">
                            <g transform="matrix(189.329,0,0,189.329,11068.1,2578.91)">
                            </g>
                            <text x="10962.8px" y="2578.91px" style="font-family:'ArialMT', 'Arial', sans-serif;font-size:189.329px;fill:white;">1</text>
                        </g>
                        <g transform="matrix(0.206733,0.111778,-0.111778,0.206733,844.933,-1249.95)">
                            <path d="M10877.5,3300.82L10877.2,3319.86L10794.1,3296.47L10799.1,3278.75L10859.1,3295.65L10881.1,3130.7L10899.5,3130.7L10877.5,3300.82Z" style="fill:white;"/>
                        </g>
                        <g transform="matrix(0.206733,0.111778,-0.111778,0.206733,850.202,-1247.37)">
                            <path d="M10852.6,3293.8L10859.1,3295.65L10881.1,3130.7L10899.5,3130.7L10877.5,3300.82L10877.2,3319.86L10852.4,3312.88L10852.6,3301.83L10852.6,3293.8Z" style="fill:white;"/>
                        </g>
                        <g transform="matrix(0.217343,0,0,0.217343,175.038,93.1182)">
                            <g transform="matrix(189.329,0,0,189.329,11615.3,2578.91)">
                            </g>
                            <text x="10962.8px" y="2578.91px" style="font-family:'Arial-ItalicMT', 'Arial', sans-serif;font-style:italic;font-size:189.329px;fill:white;">7:01PM</text>
                        </g>
                    </g>
                    <g transform="matrix(1.46798,0,0,-0.0100222,-5772.37,403.321)">
                        <rect x="4700.69" y="1509.64" width="1221.18" height="299.474" style="fill:white;"/>
                    </g>
                    <g transform="matrix(0.280145,-0.200578,0.183148,0.255801,-689.112,2129.23)">
                        <path d="M10793.9,1291.82C10773.3,1288.98 10753.3,1279.27 10737,1262.59C10695.7,1220.37 10693.4,1149.35 10732,1104.1C10770.5,1058.85 10835.4,1056.38 10876.7,1098.6C10918,1140.81 10920.3,1211.83 10881.7,1257.08C10864.4,1277.38 10841.8,1289.07 10818.5,1291.98L10818.5,1435.71C10818.5,1439.41 10815.7,1442.42 10812.3,1442.42L10800.1,1442.42C10796.7,1442.42 10793.9,1439.41 10793.9,1435.71L10793.9,1291.82ZM10864.1,1113.39C10830.2,1078.79 10777.1,1080.81 10745.5,1117.9C10713.9,1154.99 10715.7,1213.19 10749.6,1247.8C10783.5,1282.4 10836.6,1280.38 10868.2,1243.29C10899.8,1206.19 10898,1147.99 10864.1,1113.39Z" style="fill:rgb(85,158,214);"/>
                    </g>
                    <g transform="matrix(0.126127,0,0,0.126127,842.57,121.663)">
                        <g transform="matrix(636.025,0,0,636.025,9286.81,1559.17)">
                        </g>
                        <text x="5469.11px" y="1559.17px" style="font-family:'ArialMT', 'Arial', sans-serif;font-size:636.025px;fill:white;">MENA<tspan x="7271.59px 7448.3px " y="1559.17px 1559.17px "> H</tspan>ealth</text>
                    </g>
                    <g transform="matrix(0.12481,0,0,0.12481,1425.03,132.026)">
                        <circle cx="10493.3" cy="1188.29" r="84.711" style="fill:rgb(46,166,255);"/>
                    </g>
                    <g transform="matrix(1.01648,0,0,1.01648,-9246.5,-927.535)">
                        <circle cx="10493.3" cy="1188.29" r="84.711" style="fill:white;"/>
                    </g>
                    <g transform="matrix(0.12481,0,0,0.12481,1462.48,132.026)">
                        <circle cx="10493.3" cy="1188.29" r="84.711" style="fill:rgb(46,166,255);"/>
                    </g>
                    <g transform="matrix(0.12481,0,0,0.12481,1503.66,132.026)">
                        <circle cx="10493.3" cy="1188.29" r="84.711" style="fill:rgb(46,166,255);"/>
                    </g>
                    <g transform="matrix(1.22719,0,0,1.22719,-459.493,-453.624)">
                        <path d="M1858.71,489.416C1858.71,505.156 1845.95,517.916 1830.21,517.916C1814.47,517.916 1801.71,505.156 1801.71,489.416C1801.71,473.677 1814.47,460.917 1830.21,460.917C1845.95,460.917 1858.71,473.677 1858.71,489.416Z" style="fill:rgb(3,4,4);fill-rule:nonzero;"/>
                    </g>
                    <g transform="matrix(1.22719,0,0,1.22719,-459.493,-453.624)">
                        <path d="M1857.42,489.416C1857.42,504.445 1845.23,516.628 1830.21,516.628C1815.18,516.628 1802.99,504.445 1802.99,489.416C1802.99,474.388 1815.18,462.205 1830.21,462.205C1845.23,462.205 1857.42,474.388 1857.42,489.416Z" style="fill:rgb(20,26,35);fill-rule:nonzero;"/>
                    </g>
                    <g transform="matrix(1.22719,0,0,1.22719,-459.493,-453.624)">
                        <path d="M1852.64,489.416C1852.64,501.805 1842.59,511.848 1830.21,511.848C1817.82,511.848 1807.77,501.805 1807.77,489.416C1807.77,477.028 1817.82,466.985 1830.21,466.985C1842.59,466.985 1852.64,477.028 1852.64,489.416Z" style="fill:rgb(201,199,200);fill-rule:nonzero;"/>
                    </g>
                    <g transform="matrix(1.22719,0,0,1.22719,-459.493,-453.624)">
                        <path d="M1850.99,489.292C1851.06,500.77 1841.81,510.13 1830.33,510.199C1818.85,510.267 1809.49,501.018 1809.42,489.54C1809.35,478.063 1818.6,468.702 1830.08,468.634C1841.56,468.565 1850.92,477.814 1850.99,489.292Z" style="fill:rgb(9,13,18);fill-rule:nonzero;"/>
                    </g>
                    <g transform="matrix(1.22719,0,0,1.22719,-459.493,-453.624)">
                        <path d="M1849,489.304C1849.06,499.682 1840.7,508.145 1830.32,508.207C1819.94,508.269 1811.48,499.906 1811.42,489.529C1811.35,479.151 1819.72,470.688 1830.09,470.626C1840.47,470.564 1848.93,478.926 1849,489.304Z" style="fill:rgb(3,4,4);fill-rule:nonzero;"/>
                    </g>
                    <g transform="matrix(1.22719,0,0,1.22719,-459.493,-453.624)">
                        <path d="M1844.89,489.329C1844.94,497.44 1838.4,504.054 1830.29,504.103C1822.18,504.151 1815.57,497.615 1815.52,489.504C1815.47,481.393 1822.01,474.778 1830.12,474.73C1838.23,474.681 1844.84,481.217 1844.89,489.329Z" style="fill:rgb(15,35,63);fill-rule:nonzero;"/>
                    </g>
                    <g transform="matrix(1.22719,0,0,1.22719,-459.493,-453.624)">
                        <path d="M1841.82,489.347C1841.86,495.763 1836.69,500.995 1830.28,501.034C1823.86,501.072 1818.63,495.902 1818.59,489.486C1818.55,483.07 1823.72,477.837 1830.14,477.799C1836.55,477.761 1841.79,482.931 1841.82,489.347Z" style="fill:rgb(102,103,103);fill-rule:nonzero;"/>
                    </g>
                    <g transform="matrix(1.22719,0,0,1.22719,-459.493,-453.624)">
                        <path d="M1839.77,489.359C1839.8,494.642 1835.55,498.951 1830.26,498.982C1824.98,499.014 1820.67,494.757 1820.64,489.473C1820.61,484.19 1824.87,479.882 1830.15,479.85C1835.43,479.819 1839.74,484.076 1839.77,489.359Z" style="fill:rgb(22,47,87);fill-rule:nonzero;"/>
                    </g>
                    <g transform="matrix(1.22719,0,0,1.22719,-459.493,-453.624)">
                        <path d="M1834.62,489.39C1834.63,491.825 1832.67,493.811 1830.23,493.826C1827.8,493.84 1825.81,491.878 1825.8,489.443C1825.78,487.007 1827.74,485.021 1830.18,485.006C1832.62,484.992 1834.6,486.954 1834.62,489.39Z" style="fill:rgb(3,4,4);fill-rule:nonzero;"/>
                    </g>
                    <g transform="matrix(1.22719,0,0,1.22719,-459.493,-453.624)">
                        <path d="M1838.98,484.737C1838.98,487.294 1836.91,489.366 1834.35,489.366C1831.79,489.366 1829.72,487.294 1829.72,484.737C1829.72,482.18 1831.79,480.107 1834.35,480.107C1836.91,480.107 1838.98,482.18 1838.98,484.737Z" style="fill:white;fill-rule:nonzero;"/>
                    </g>
                    <g transform="matrix(1.22719,0,0,1.22719,-459.493,-453.624)">
                        <path d="M1828.8,492.226C1828.8,493.479 1827.79,494.495 1826.53,494.495C1825.28,494.495 1824.27,493.479 1824.27,492.226C1824.27,490.973 1825.28,489.957 1826.53,489.957C1827.79,489.957 1828.8,490.973 1828.8,492.226Z" style="fill:white;fill-rule:nonzero;"/>
                    </g>
                    <g transform="matrix(1.22719,0,0,1.22719,-459.493,-453.624)">
                        <path d="M2138.26,415.644L1913.59,415.644C1909.92,415.644 1906.92,412.644 1906.92,408.977C1906.92,405.311 1909.92,402.311 1913.59,402.311L2138.26,402.311C2141.92,402.311 2144.92,405.311 2144.92,408.977C2144.92,412.644 2141.92,415.644 2138.26,415.644Z" style="fill:rgb(46,48,53);fill-rule:nonzero;"/>
                    </g>
                    <g transform="matrix(1.22719,0,0,1.22719,-459.493,-453.624)">
                        <path d="M1225.47,1095.69L1216.79,1095.69C1210.19,1095.69 1204.79,1090.29 1204.79,1083.69L1204.79,982.978C1204.79,976.377 1210.19,970.978 1216.79,970.978L1225.47,970.978C1232.07,970.978 1237.47,976.377 1237.47,982.978L1237.47,1083.69C1237.47,1090.29 1232.07,1095.69 1225.47,1095.69Z" style="fill:rgb(193,193,193);fill-rule:nonzero;"/>
                    </g>
                    <g transform="matrix(1.22719,0,0,1.22719,-459.493,-453.624)">
                        <path d="M1206.54,1085.44L1206.54,984.728C1206.54,978.127 1211.94,972.728 1218.54,972.728L1227.22,972.728C1230.08,972.728 1232.71,973.742 1234.78,975.425C1232.57,972.717 1229.22,970.978 1225.47,970.978L1216.79,970.978C1210.19,970.978 1204.79,976.377 1204.79,982.978L1204.79,1083.69C1204.79,1087.43 1206.53,1090.79 1209.24,1092.99C1207.56,1090.93 1206.54,1088.3 1206.54,1085.44Z" style="fill:rgb(234,234,235);fill-rule:nonzero;"/>
                    </g>
                    <g transform="matrix(1.22719,0,0,1.22719,-459.493,-453.624)">
                        <path d="M1225.47,1424.31L1216.79,1424.31C1210.19,1424.31 1204.79,1418.91 1204.79,1412.31L1204.79,1199.19C1204.79,1192.59 1210.19,1187.19 1216.79,1187.19L1225.47,1187.19C1232.07,1187.19 1237.47,1192.59 1237.47,1199.19L1237.47,1412.31C1237.47,1418.91 1232.07,1424.31 1225.47,1424.31Z" style="fill:rgb(193,193,193);fill-rule:nonzero;"/>
                    </g>
                    <g transform="matrix(1.22719,0,0,1.22719,-459.493,-453.624)">
                        <path d="M1206.6,1414.12L1206.6,1201C1206.6,1194.4 1212,1189 1218.6,1189L1227.29,1189C1230.13,1189 1232.74,1190 1234.8,1191.67C1232.6,1188.94 1229.23,1187.19 1225.47,1187.19L1216.79,1187.19C1210.19,1187.19 1204.79,1192.59 1204.79,1199.19L1204.79,1412.31C1204.79,1416.07 1206.55,1419.44 1209.27,1421.64C1207.61,1419.58 1206.6,1416.96 1206.6,1414.12Z" style="fill:rgb(234,234,235);fill-rule:nonzero;"/>
                    </g>
                    <g transform="matrix(1.22719,0,0,1.22719,-459.493,-453.624)">
                        <path d="M1225.47,1720.31L1216.79,1720.31C1210.19,1720.31 1204.79,1714.91 1204.79,1708.31L1204.79,1495.19C1204.79,1488.59 1210.19,1483.19 1216.79,1483.19L1225.47,1483.19C1232.07,1483.19 1237.47,1488.59 1237.47,1495.19L1237.47,1708.31C1237.47,1714.91 1232.07,1720.31 1225.47,1720.31Z" style="fill:rgb(193,193,193);fill-rule:nonzero;"/>
                    </g>
                    <g transform="matrix(1.22719,0,0,1.22719,-459.493,-453.624)">
                        <path d="M1206.48,1710L1206.48,1496.87C1206.48,1490.27 1211.88,1484.87 1218.48,1484.87L1227.16,1484.87C1230.03,1484.87 1232.68,1485.9 1234.75,1487.6C1232.54,1484.91 1229.2,1483.19 1225.47,1483.19L1216.79,1483.19C1210.19,1483.19 1204.79,1488.59 1204.79,1495.19L1204.79,1708.31C1204.79,1712.04 1206.52,1715.38 1209.2,1717.59C1207.5,1715.51 1206.48,1712.87 1206.48,1710Z" style="fill:rgb(234,234,235);fill-rule:nonzero;"/>
                    </g>
                    <g transform="matrix(1.22719,0,0,1.22719,-459.493,-453.624)">
                        <path d="M2831.47,1637.16L2822.79,1637.16C2816.19,1637.16 2810.79,1631.76 2810.79,1625.16L2810.79,1272.31C2810.79,1265.71 2816.19,1260.31 2822.79,1260.31L2831.47,1260.31C2838.07,1260.31 2843.47,1265.71 2843.47,1272.31L2843.47,1625.16C2843.47,1631.76 2838.07,1637.16 2831.47,1637.16Z" style="fill:rgb(193,193,193);fill-rule:nonzero;"/>
                    </g>
                    <g transform="matrix(1.22719,0,0,1.22719,-459.493,-453.624)">
                        <path d="M2837.81,1262.15C2838.96,1263.99 2839.64,1266.15 2839.64,1268.48L2839.64,1621.33C2839.64,1627.93 2834.24,1633.33 2827.64,1633.33L2818.96,1633.33C2816.64,1633.33 2814.47,1632.65 2812.63,1631.5C2814.75,1634.89 2818.51,1637.16 2822.79,1637.16L2831.47,1637.16C2838.07,1637.16 2843.47,1631.76 2843.47,1625.16L2843.47,1272.31C2843.47,1268.03 2841.2,1264.27 2837.81,1262.15Z" style="fill:rgb(159,159,160);fill-rule:nonzero;"/>
                    </g>
                    <g transform="matrix(0.159437,0.179388,-0.179388,0.159437,610.118,-850.029)">
                        <path d="M5253.55,1162.98C5252.28,1161.13 5251.54,1158.88 5251.54,1156.47L5251.54,1144.79L5251.16,1134.45C5251.12,1133.27 5251.26,1132.13 5251.54,1131.05L5251.54,874.234C5251.54,867.833 5256.74,862.636 5263.14,862.636L5286.34,862.636C5292.74,862.636 5297.94,867.833 5297.94,874.234L5297.94,1121.13L5544.38,1112.1C5550.77,1111.87 5556.16,1116.87 5556.39,1123.27L5557.24,1146.45C5557.47,1152.85 5552.47,1158.23 5546.07,1158.46L5288.26,1167.91C5287.64,1168.01 5286.99,1168.07 5286.34,1168.07L5283.92,1168.07L5264.03,1168.8C5259.58,1168.96 5255.62,1166.59 5253.55,1162.98Z" style="fill:rgb(85,158,214);"/>
                    </g>
                    <g id="mena_health_logo.svg" transform="matrix(0.111736,0,0,0.111736,1419.73,280.336)">
                        <g transform="matrix(1,0,0,1,-667,-218)">
                            <g id="mena_health_logo" transform="matrix(1,0,0,0.580892,0,0)">
                                <rect x="0" y="0" width="1334" height="750" style="fill:none;"/>
                                <g>
                                    <clipPath id="_clip2">
                                        <rect x="0" y="0" width="1334" height="750"/>
                                    </clipPath>
                                    <g clip-path="url(#_clip2)">
                                        <g transform="matrix(1.62128,0,0,2.79102,-181.046,154.989)">
                                            <g>
                                                <g transform="matrix(1,0,0,1,99.982,195.645)">
                                                    <text x="0px" y="0px" style="font-family:'ArialMT', 'Arial', sans-serif;font-size:154.887px;fill:rgb(18,15,11);">HEAL</text>
                                                </g>
                                                <g transform="matrix(1,0,0,1,498.846,195.645)">
                                                    <text x="43.033px" y="0px" style="font-family:'ArialMT', 'Arial', sans-serif;font-size:154.887px;fill:rgb(18,15,11);">H</text>
                                                </g>
                                            </g>
                                        </g>
                                        <g transform="matrix(1.62128,0,0,2.79102,202.495,309.443)">
                                            <text x="0px" y="0px" style="font-family:'ArialMT', 'Arial', sans-serif;font-size:154.887px;fill:rgb(18,15,11);">MENA</text>
                                        </g>
                                        <g transform="matrix(1.23351,0,0,2.12347,-26.6555,-380.028)">
                                            <rect x="794.792" y="178.966" width="3.533" height="330.139" style="fill:rgb(18,15,11);"/>
                                        </g>
                                        <g transform="matrix(11.5094,0,0,1.45599,-8143.16,-224.443)">
                                            <rect x="794.792" y="178.966" width="3.533" height="330.139" style="fill:rgb(5,110,115);"/>
                                        </g>
                                        <g transform="matrix(11.5094,0,0,0.577129,-7854.25,222.99)">
                                            <rect x="794.792" y="178.966" width="3.533" height="330.139" style="fill:rgb(5,110,115);"/>
                                        </g>
                                        <g transform="matrix(11.5094,0,0,0.577129,-7935.56,222.99)">
                                            <rect x="794.792" y="178.966" width="3.533" height="330.139" style="fill:rgb(5,110,115);"/>
                                        </g>
                                        <g transform="matrix(11.5094,0,0,0.628113,-8011.6,197.034)">
                                            <rect x="794.792" y="178.966" width="3.533" height="330.139" style="fill:rgb(5,110,115);"/>
                                        </g>
                                        <g transform="matrix(11.5094,0,0,0.211696,-8011.6,517.92)">
                                            <rect x="794.792" y="178.966" width="3.533" height="330.139" style="fill:rgb(5,110,115);"/>
                                        </g>
                                        <g transform="matrix(11.5094,0,0,0.211696,-8011.6,636.906)">
                                            <rect x="794.792" y="178.966" width="3.533" height="330.139" style="fill:rgb(5,110,115);"/>
                                        </g>
                                        <g transform="matrix(11.5094,0,0,0.628113,-8074.98,197.034)">
                                            <rect x="794.792" y="178.966" width="3.533" height="330.139" style="fill:rgb(5,110,115);"/>
                                        </g>
                                        <g transform="matrix(11.5094,0,0,0.211205,-8074.98,166.776)">
                                            <rect x="794.792" y="178.966" width="3.533" height="330.139" style="fill:rgb(5,110,115);"/>
                                        </g>
                                        <g transform="matrix(7.04747e-16,19.8133,-0.369462,3.89453e-17,1400.12,-15438)">
                                            <rect x="794.792" y="178.966" width="3.533" height="330.139" style="fill:rgb(5,110,115);"/>
                                        </g>
                                        <g transform="matrix(93.2814,0,0,0.212001,-73134.9,408.878)">
                                            <rect x="794.792" y="178.966" width="3.533" height="330.139" style="fill:rgb(5,110,115);"/>
                                        </g>
                                        <g transform="matrix(0.128783,0,0,0.278528,594.936,391.596)">
                                            <g id="vecteezy_world-health-day-with-medical-symbol_106540.svg">
                                                <g>
                                                    <g>
                                                        <clipPath id="_clip3">
                                                            <rect x="0" y="0" width="1347.11" height="1111"/>
                                                        </clipPath>
                                                        <g clip-path="url(#_clip3)">
                                                            <g transform="matrix(2.28401,0,0,2.47715,-963.854,-616.562)">
                                                                <g>
                                                                    <g>
                                                                        <path d="M1010.6,337.1C1011.3,336.3 1011.8,335.6 1011.8,335.6C929.3,335.6 812.1,290.2 812.1,290.2C812.1,290.2 781.8,271.8 758.6,294.5C741.7,311.2 729,323.7 722.3,330.3L722.3,301C734.4,298.5 743.5,288.2 743.5,275.5C743.5,260.8 731.7,248.9 716.9,248.9C702.2,248.9 690.3,260.8 690.3,275.5C690.3,288.3 699.6,298.5 711.6,301L711.6,330.5C704.9,324 692.2,311.4 675.1,294.6C652.2,271.9 621.7,290.3 621.7,290.3C621.7,290.3 504.4,335.7 422,335.7C422,335.7 422.4,336.4 423.3,337.2C448.3,338.8 502.7,339.7 557,323.8C557,323.8 505.6,348.6 424.3,338.4C432.2,346.5 464.8,370.6 551.5,341.7C569.3,335.8 569.3,335.8 557.5,341.7C557.5,341.7 522.6,362.4 463.7,368.3C463.7,368.3 465.4,372.7 471.9,377C487.9,376.4 537.8,372.5 586.1,347.7C586.1,347.7 543.3,380.2 472.5,377.3C486.7,386 522.1,393.1 608.5,357.4C608.5,357.4 619.4,354.4 611.8,358.9C604.1,363.3 549.3,386.8 506.3,390C506.3,390 511.4,394.4 522.5,397.5C545.7,393.5 591.2,383.8 633.7,363C633.7,363 595.2,389.4 524.5,398C545.1,403 584.4,403.8 649.8,372C649.8,372 658,370.3 651.7,373.5C645.6,376.8 603.8,399.7 567.7,403.2C564.9,403.6 577,407.6 596,407.8C612.1,404 640.6,395.2 666.9,376.7C666.9,376.7 644.6,399.3 602.5,407.6C624.2,406.8 653,400.6 679.4,379.4C679.4,379.4 700.8,393.6 711.7,398.5L711.7,484.4C702.9,480.5 694.2,476.9 686.2,472.7C679.5,469.3 673.1,465.2 669.1,461.3C667.1,459.3 663.1,450.9 668.2,446.3C672.6,444.4 680.1,445.5 684.7,447.1L684.8,446.8C694,448.2 702.1,444 703.9,433.7C705.5,423.3 701.5,416.2 692.6,414.5L692.6,414.2C681.8,412.2 672.3,411.7 659.9,416.1C653.9,418.4 647.5,423 643.5,429.4C639.4,435.8 638,442.9 637.6,448.7C637.5,451.7 637.6,454.5 637.7,457.2C637.9,459.8 639.1,465.2 640.6,467.9C643.6,474.6 647.9,479 652,482.4C660.3,489 668.4,492.5 676.4,495.8C681.4,497.9 686.3,499.4 691.2,501.2C687.6,504.3 683.2,508 680.6,515.1C677.8,522.7 680.9,531.1 684.2,535.3C686.9,538.8 689.2,541.9 692.1,545.4C696.8,551.2 702.1,556.5 707.3,561.5C704.3,565.3 701.4,569.4 698.9,574.5C694.7,583.2 694.1,595.5 700.8,603.9C704,608.1 707.5,611.7 711.1,614.8C710.8,615.1 710.5,615.4 710.2,615.8C704.5,621.6 698.2,627.2 693.5,634.8C691.3,638.6 689.3,643.3 690,648.5C690.7,653.5 694.3,657.6 697,660.2C701.5,665 706.7,669.2 711.7,673.4L711.7,684.4C709.8,686.9 708.5,689.6 708.1,692.5C708.8,689.9 710.4,687.2 711.7,684.6L711.7,696.1L722.3,696.1L722.3,684C724.8,687.8 726.4,692.3 725.4,697.4C726.2,693.3 726,688.8 724.3,685C723.8,683.8 723,682.9 722.3,681.8L722.3,674.5C727.8,669.7 733.5,665 738.6,659.5C741.2,657 744.8,653 745.4,647.8C746,642.6 744,637.9 741.7,634.1C736.8,626.6 730.5,621.1 724.7,615.3C724.5,615.2 724.4,615 724.2,614.8C727.6,611.7 730.9,608.3 734,604.2C740.6,595.7 739.9,583.5 735.4,574.8C732.8,569.6 729.7,565.5 726.5,561.6C731.7,556.3 737.1,550.8 741.8,544.8C744.7,541.3 747,538.3 749.6,534.6C752.7,530.5 755.9,522 752.9,514.4C750.4,507.6 746.2,504.2 742.7,501.2C747.5,499.4 752.1,497.9 756.9,495.8C764.8,492.4 772.9,488.7 781,482C785,478.6 789.3,473.9 792.3,467.3C793.7,464.5 794.8,459 794.8,456.6C795.1,453.8 795.1,451.1 795,448.1C794.7,442.2 793,435.3 788.9,428.8C784.7,422.5 778.1,418 772.2,415.8C759.8,411.6 750.4,412.3 739.5,414.4L739.6,414.7C730.7,416.5 726.8,423.7 728.5,434C730.5,444.4 738.6,448.4 747.8,446.8L747.8,447.1C752.4,445.5 759.9,444.2 764.4,446.1C769.4,450.6 765.8,459.1 763.7,461.1C759.8,465.3 753.5,469.1 746.9,472.6C739.3,476.8 731,480.5 722.5,484.3L722.5,398.6C733.5,393.6 754.7,379.5 754.7,379.5C781.1,400.7 809.8,406.8 831.5,407.7C789.6,399.4 767.1,376.8 767.1,376.8C793.5,395.4 821.9,404.1 838,407.9C857.1,407.7 869.1,403.7 866.3,403.3C830.3,399.7 788.4,376.9 782.3,373.6C776.1,370.5 784.3,372.1 784.3,372.1C849.7,403.9 889,403.1 909.5,398.1C838.9,389.5 800.4,363.1 800.4,363.1C842.7,383.9 888.3,393.6 911.5,397.6C922.6,394.5 927.7,390.1 927.7,390.1C884.7,386.9 830,363.4 822.3,359C814.6,354.6 825.5,357.5 825.5,357.5C911.7,393.2 947.2,386.1 961.3,377.4C890.6,380.3 847.9,347.8 847.9,347.8C896.2,372.6 945.9,376.5 961.9,377.1C968.5,372.9 970.2,368.4 970.2,368.4C911.3,362.5 876.3,341.8 876.3,341.8C864.6,335.9 864.6,335.9 882.2,341.8C969,370.7 1001.5,346.6 1009.6,338.5C928.2,348.7 876.7,323.9 876.7,323.9C931.2,339.7 985.5,338.7 1010.6,337.1ZM698.4,524.8C697,522.2 697.5,521.8 697.7,521.6C698.3,519.8 705.2,515.2 711.6,512.5L711.6,543.1C709.3,540.4 706.8,537.6 704.8,534.6C702.7,531.7 700.4,528 698.4,524.8ZM709.3,597.8C705.8,592.8 706.5,585.8 709.8,580.3C710.3,579.4 711.1,578.7 711.7,577.9L711.7,600.8C711,599.8 710,598.8 709.3,597.8ZM700.1,657C693.9,651.1 693.8,644.2 698.6,638.2C702.2,633.4 706.9,629.4 711.7,625.2L711.7,669.4C707.8,665.4 703.6,661.4 700.1,657ZM736.6,637.5C741.7,643.6 741.6,650.4 735.5,656.3C731.5,661.4 726.8,666.1 722.3,670.8L722.3,623.9C727.6,628.1 732.8,632.4 736.6,637.5ZM725.5,598C724.7,599.5 723.4,600.8 722.3,602.2L722.3,577.6C723,578.6 724,579.5 724.6,580.5C728,586 728.9,592.9 725.5,598ZM735.2,524.1C733.3,527.4 730.9,531.1 728.9,534.1C726.9,537 724.5,539.7 722.3,542.5L722.3,512.4C728.7,514.9 735.2,519.2 735.8,520.9C736.1,521.1 736.5,521.6 735.2,524.1Z" style="fill-rule:nonzero;"/>
                                                                        <path d="M1010.6,337.1C1011.3,336.3 1011.8,335.6 1011.8,335.6C929.3,335.6 812.1,290.2 812.1,290.2C812.1,290.2 781.8,271.8 758.6,294.5C741.7,311.2 729,323.7 722.3,330.3L722.3,301C734.4,298.5 743.5,288.2 743.5,275.5C743.5,260.8 731.7,248.9 716.9,248.9C702.2,248.9 690.3,260.8 690.3,275.5C690.3,288.3 699.6,298.5 711.6,301L711.6,330.5C704.9,324 692.2,311.4 675.1,294.6C652.2,271.9 621.7,290.3 621.7,290.3C621.7,290.3 504.4,335.7 422,335.7C422,335.7 422.4,336.4 423.3,337.2C448.3,338.8 502.7,339.7 557,323.8C557,323.8 505.6,348.6 424.3,338.4C432.2,346.5 464.8,370.6 551.5,341.7C569.3,335.8 569.3,335.8 557.5,341.7C557.5,341.7 522.6,362.4 463.7,368.3C463.7,368.3 465.4,372.7 471.9,377C487.9,376.4 537.8,372.5 586.1,347.7C586.1,347.7 543.3,380.2 472.5,377.3C486.7,386 522.1,393.1 608.5,357.4C608.5,357.4 619.4,354.4 611.8,358.9C604.1,363.3 549.3,386.8 506.3,390C506.3,390 511.4,394.4 522.5,397.5C545.7,393.5 591.2,383.8 633.7,363C633.7,363 595.2,389.4 524.5,398C545.1,403 584.4,403.8 649.8,372C649.8,372 658,370.3 651.7,373.5C645.6,376.8 603.8,399.7 567.7,403.2C564.9,403.6 577,407.6 596,407.8C612.1,404 640.6,395.2 666.9,376.7C666.9,376.7 644.6,399.3 602.5,407.6C624.2,406.8 653,400.6 679.4,379.4C679.4,379.4 700.8,393.6 711.7,398.5L711.7,484.4C702.9,480.5 694.2,476.9 686.2,472.7C679.5,469.3 673.1,465.2 669.1,461.3C667.1,459.3 663.1,450.9 668.2,446.3C672.6,444.4 680.1,445.5 684.7,447.1L684.8,446.8C694,448.2 702.1,444 703.9,433.7C705.5,423.3 701.5,416.2 692.6,414.5L692.6,414.2C681.8,412.2 672.3,411.7 659.9,416.1C653.9,418.4 647.5,423 643.5,429.4C639.4,435.8 638,442.9 637.6,448.7C637.5,451.7 637.6,454.5 637.7,457.2C637.9,459.8 639.1,465.2 640.6,467.9C643.6,474.6 647.9,479 652,482.4C660.3,489 668.4,492.5 676.4,495.8C681.4,497.9 686.3,499.4 691.2,501.2C687.6,504.3 683.2,508 680.6,515.1C677.8,522.7 680.9,531.1 684.2,535.3C686.9,538.8 689.2,541.9 692.1,545.4C696.8,551.2 702.1,556.5 707.3,561.5C704.3,565.3 701.4,569.4 698.9,574.5C694.7,583.2 694.1,595.5 700.8,603.9C704,608.1 707.5,611.7 711.1,614.8C710.8,615.1 710.5,615.4 710.2,615.8C704.5,621.6 698.2,627.2 693.5,634.8C691.3,638.6 689.3,643.3 690,648.5C690.7,653.5 694.3,657.6 697,660.2C701.5,665 706.7,669.2 711.7,673.4L711.7,684.4C709.8,686.9 708.5,689.6 708.1,692.5C708.8,689.9 710.4,687.2 711.7,684.6L711.7,696.1L722.3,696.1L722.3,684C724.8,687.8 726.4,692.3 725.4,697.4C726.2,693.3 726,688.8 724.3,685C723.8,683.8 723,682.9 722.3,681.8L722.3,674.5C727.8,669.7 733.5,665 738.6,659.5C741.2,657 744.8,653 745.4,647.8C746,642.6 744,637.9 741.7,634.1C736.8,626.6 730.5,621.1 724.7,615.3C724.5,615.2 724.4,615 724.2,614.8C727.6,611.7 730.9,608.3 734,604.2C740.6,595.7 739.9,583.5 735.4,574.8C732.8,569.6 729.7,565.5 726.5,561.6C731.7,556.3 737.1,550.8 741.8,544.8C744.7,541.3 747,538.3 749.6,534.6C752.7,530.5 755.9,522 752.9,514.4C750.4,507.6 746.2,504.2 742.7,501.2C747.5,499.4 752.1,497.9 756.9,495.8C764.8,492.4 772.9,488.7 781,482C785,478.6 789.3,473.9 792.3,467.3C793.7,464.5 794.8,459 794.8,456.6C795.1,453.8 795.1,451.1 795,448.1C794.7,442.2 793,435.3 788.9,428.8C784.7,422.5 778.1,418 772.2,415.8C759.8,411.6 750.4,412.3 739.5,414.4L739.6,414.7C730.7,416.5 726.8,423.7 728.5,434C730.5,444.4 738.6,448.4 747.8,446.8L747.8,447.1C752.4,445.5 759.9,444.2 764.4,446.1C769.4,450.6 765.8,459.1 763.7,461.1C759.8,465.3 753.5,469.1 746.9,472.6C739.3,476.8 731,480.5 722.5,484.3L722.5,398.6C733.5,393.6 754.7,379.5 754.7,379.5C781.1,400.7 809.8,406.8 831.5,407.7C789.6,399.4 767.1,376.8 767.1,376.8C793.5,395.4 821.9,404.1 838,407.9C857.1,407.7 869.1,403.7 866.3,403.3C830.3,399.7 788.4,376.9 782.3,373.6C776.1,370.5 784.3,372.1 784.3,372.1C849.7,403.9 889,403.1 909.5,398.1C838.9,389.5 800.4,363.1 800.4,363.1C842.7,383.9 888.3,393.6 911.5,397.6C922.6,394.5 927.7,390.1 927.7,390.1C884.7,386.9 830,363.4 822.3,359C814.6,354.6 825.5,357.5 825.5,357.5C911.7,393.2 947.2,386.1 961.3,377.4C890.6,380.3 847.9,347.8 847.9,347.8C896.2,372.6 945.9,376.5 961.9,377.1C968.5,372.9 970.2,368.4 970.2,368.4C911.3,362.5 876.3,341.8 876.3,341.8C864.6,335.9 864.6,335.9 882.2,341.8C969,370.7 1001.5,346.6 1009.6,338.5C928.2,348.7 876.7,323.9 876.7,323.9C931.2,339.7 985.5,338.7 1010.6,337.1ZM698.4,524.8C697,522.2 697.5,521.8 697.7,521.6C698.3,519.8 705.2,515.2 711.6,512.5L711.6,543.1C709.3,540.4 706.8,537.6 704.8,534.6C702.7,531.7 700.4,528 698.4,524.8ZM709.3,597.8C705.8,592.8 706.5,585.8 709.8,580.3C710.3,579.4 711.1,578.7 711.7,577.9L711.7,600.8C711,599.8 710,598.8 709.3,597.8ZM700.1,657C693.9,651.1 693.8,644.2 698.6,638.2C702.2,633.4 706.9,629.4 711.7,625.2L711.7,669.4C707.8,665.4 703.6,661.4 700.1,657ZM736.6,637.5C741.7,643.6 741.6,650.4 735.5,656.3C731.5,661.4 726.8,666.1 722.3,670.8L722.3,623.9C727.6,628.1 732.8,632.4 736.6,637.5ZM725.5,598C724.7,599.5 723.4,600.8 722.3,602.2L722.3,577.6C723,578.6 724,579.5 724.6,580.5C728,586 728.9,592.9 725.5,598ZM735.2,524.1C733.3,527.4 730.9,531.1 728.9,534.1C726.9,537 724.5,539.7 722.3,542.5L722.3,512.4C728.7,514.9 735.2,519.2 735.8,520.9C736.1,521.1 736.5,521.6 735.2,524.1Z" style="fill-rule:nonzero;"/>
                                                                        <path d="M707.9,696.4C707.6,694.9 708,693.6 708.2,692.2C707.8,693.6 707.6,695 707.9,696.4Z" style="fill-rule:nonzero;"/>
                                                                    </g>
                                                                </g>
                                                            </g>
                                                        </g>
                                                    </g>
                                                </g>
                                            </g>
                                        </g>
                                    </g>
                                </g>
                            </g>
                        </g>
                    </g>
                    <g transform="matrix(0.48928,0,0,0.623315,-1272.41,-1235.97)">
                        <path d="M5110.06,4556.99C5106.34,4548.82 5104.34,4540.16 5104.34,4531.2L5104.34,3314.51C5104.34,3264.79 5165.81,3224.42 5241.53,3224.42L7276.01,3224.42C7351.72,3224.42 7413.19,3264.79 7413.19,3314.51L7413.19,4531.2C7413.19,4580.92 7351.72,4621.29 7276.01,4621.29L5241.53,4621.29C5203.12,4621.29 5168.38,4610.9 5143.46,4594.18C5131.04,4601.41 5028.47,4624.64 5038.96,4620.85C5069.65,4609.73 5104.77,4564.05 5110.06,4556.99Z" style="fill:rgb(33,48,64);"/>
                    </g>
                    <g transform="matrix(-0.237932,0,0,0.272736,3839.31,1178.51)">
                        <path d="M11017.8,3394.68L11092,3326.47C11092,3326.47 11194.4,3418.89 11287.4,3441.66C11316.8,3448.87 11050.2,3408.11 11017.8,3394.68Z" style="fill:rgb(35,48,63);stroke:rgb(35,48,63);stroke-width:0.94px;"/>
                    </g>
                    <g transform="matrix(0.871683,0,0,0.871683,-3177.52,-5894.5)">
                        <text x="5068.29px" y="9050.92px" style="font-family:'HelveticaNeue', 'Helvetica Neue';font-size:54.167px;fill:white;">W<tspan x="5115.36px 5144.45px " y="9050.92px 9050.92px ">el</tspan>come to MENA Health, please use the link</text>
                        <g transform="matrix(54.1667,0,0,54.1667,6218.03,9106.6)">
                        </g>
                        <text x="5068.29px" y="9106.6px" style="font-family:'HelveticaNeue', 'Helvetica Neue';font-size:54.167px;fill:white;">below to complete the patient r<tspan x="5822.78px 5851.87px " y="9106.6px 9106.6px ">eg</tspan>istration form.</text>
                    </g>
                    <g transform="matrix(1.07153,0,0,1.07153,-10493.7,-1913.17)">
                        <text x="10962.8px" y="2578.91px" style="font-family:'HelveticaNeue', 'Helvetica Neue';font-size:43.175px;fill:white;">Please select your language by sending the number</text>
                        <text x="10962.8px" y="2672.32px" style="font-family:'GeezaPro', 'Geeza Pro';font-size:43.175px;fill:white;">الرجاء</text>
                        <text x="11076.9px" y="2672.32px" style="font-family:'GeezaPro', 'Geeza Pro';font-size:43.175px;fill:white;">تحديد</text>
                        <text x="11204.6px" y="2672.32px" style="font-family:'GeezaPro', 'Geeza Pro';font-size:43.175px;fill:white;">اللغة</text>
                        <text x="11310.6px" y="2672.32px" style="font-family:'GeezaPro', 'Geeza Pro';font-size:43.175px;fill:white;">الخاصة</text>
                        <text x="11456.6px" y="2672.32px" style="font-family:'GeezaPro', 'Geeza Pro';font-size:43.175px;fill:white;">بك</text>
                        <text x="11519.8px" y="2672.32px" style="font-family:'GeezaPro', 'Geeza Pro';font-size:43.175px;fill:white;">عن</text>
                        <text x="11580px" y="2672.32px" style="font-family:'GeezaPro', 'Geeza Pro';font-size:43.175px;fill:white;">طريق</text>
                        <text x="11686.7px" y="2672.32px" style="font-family:'GeezaPro', 'Geeza Pro';font-size:43.175px;fill:white;">إرسال</text>
                        <text x="11801.5px" y="2672.32px" style="font-family:'GeezaPro', 'Geeza Pro';font-size:43.175px;fill:white;">الرقم</text>
                        <text x="10962.8px" y="2765.74px" style="font-family:'GeezaPro', 'Geeza Pro';font-size:43.175px;fill:white;">لطفا</text>
                        <text x="11067.5px" y="2765.74px" style="font-family:'GeezaPro', 'Geeza Pro';font-size:43.175px;fill:white;">زبان</text>
                        <text x="11160.4px" y="2765.74px" style="font-family:'GeezaPro', 'Geeza Pro';font-size:43.175px;fill:white;">خود</text>
                        <text x="11232.2px" y="2765.74px" style="font-family:'GeezaPro', 'Geeza Pro';font-size:43.175px;fill:white;">را</text>
                        <text x="11274.4px" y="2765.74px" style="font-family:'GeezaPro', 'Geeza Pro';font-size:43.175px;fill:white;">با</text>
                        <text x="11326.6px" y="2765.74px" style="font-family:'GeezaPro', 'Geeza Pro';font-size:43.175px;fill:white;">ارسال</text>
                        <text x="11441.4px" y="2765.74px" style="font-family:'GeezaPro', 'Geeza Pro';font-size:43.175px;fill:white;">شماره</text>
                        <text x="11555.8px" y="2765.74px" style="font-family:'GeezaPro', 'Geeza Pro';font-size:43.175px;fill:white;">انتخاب</text>
                        <text x="11696.5px" y="2765.74px" style="font-family:'GeezaPro', 'Geeza Pro';font-size:43.175px;fill:white;">کنید</text>
                        <text x="10962.8px" y="2859.15px" style="font-family:'GeezaPro', 'Geeza Pro';font-size:43.175px;fill:white;">مهرباني</text>
                        <text x="11116px" y="2859.15px" style="font-family:'GeezaPro', 'Geeza Pro';font-size:43.175px;fill:white;">وکړئ</text>
                        <text x="11220.6px" y="2859.15px" style="font-family:'GeezaPro', 'Geeza Pro';font-size:43.175px;fill:white;">د</text>
                        <text x="11250.2px" y="2859.15px" style="font-family:'GeezaPro', 'Geeza Pro';font-size:43.175px;fill:white;">شمیرې</text>
                        <text x="11392.1px" y="2859.15px" style="font-family:'GeezaPro', 'Geeza Pro';font-size:43.175px;fill:white;">په</text>
                        <text x="11446.9px" y="2859.15px" style="font-family:'GeezaPro', 'Geeza Pro';font-size:43.175px;fill:white;">لیږلو</text>
                        <text x="11562.1px" y="2859.15px" style="font-family:'GeezaPro', 'Geeza Pro';font-size:43.175px;fill:white;">سره</text>
                        <text x="11646.2px" y="2859.15px" style="font-family:'GeezaPro', 'Geeza Pro';font-size:43.175px;fill:white;">خپله</text>
                        <text x="11746.7px" y="2859.15px" style="font-family:'GeezaPro', 'Geeza Pro';font-size:43.175px;fill:white;">ژبه</text>
                        <text x="11819.1px" y="2859.15px" style="font-family:'GeezaPro', 'Geeza Pro';font-size:43.175px;fill:white;">وټاکئ</text>
                        <text x="10962.8px" y="2947.92px" style="font-family:'HelveticaNeue', 'Helvetica Neue';font-size:43.175px;fill:white;">1 = English</text>
                        <text x="10962.8px" y="2996.95px" style="font-family:'HelveticaNeue', 'Helvetica Neue';font-size:43.175px;fill:white;">2 =</text>
                        <text x="11036.7px" y="2996.95px" style="font-family:'GeezaPro', 'Geeza Pro';font-size:43.175px;fill:white;">العربية</text>
                        <text x="10962.8px" y="3045.98px" style="font-family:'HelveticaNeue', 'Helvetica Neue';font-size:43.175px;fill:white;">3 =</text>
                        <text x="11036.7px" y="3045.98px" style="font-family:'GeezaPro', 'Geeza Pro';font-size:43.175px;fill:white;">فارسی</text>
                        <text x="10962.8px" y="3095.01px" style="font-family:'HelveticaNeue', 'Helvetica Neue';font-size:43.175px;fill:white;">4 =</text>
                        <text x="11036.7px" y="3095.01px" style="font-family:'GeezaPro', 'Geeza Pro';font-size:43.175px;fill:white;">پښتو</text>
                        <text x="10962.8px" y="3183.78px" style="font-family:'HelveticaNeue', 'Helvetica Neue';font-size:43.175px;fill:white;">(2 = Arabic / 3 = Farsi / 4 = Pashto)</text>
                    </g>
                    <g transform="matrix(0.201045,0.108702,-0.108702,0.201045,465.712,-236.368)">
                        <path d="M10877.5,3300.82L10877.2,3319.86L10794.1,3296.47L10799.1,3278.75L10859.1,3295.65L10881.1,3130.7L10899.5,3130.7L10877.5,3300.82Z" style="fill:white;"/>
                    </g>
                    <g transform="matrix(0.201045,0.108702,-0.108702,0.201045,470.836,-233.859)">
                        <path d="M10852.6,3293.8L10859.1,3295.65L10881.1,3130.7L10899.5,3130.7L10877.5,3300.82L10877.2,3319.86L10852.4,3312.88L10852.6,3301.83L10852.6,3293.8Z" style="fill:white;"/>
                    </g>
                    <g transform="matrix(0.211363,0,0,0.211363,-185.752,1069.75)">
                        <g transform="matrix(189.329,0,0,189.329,11615.3,2578.91)">
                        </g>
                        <text x="10962.8px" y="2578.91px" style="font-family:'Arial-ItalicMT', 'Arial', sans-serif;font-style:italic;font-size:189.329px;fill:white;">7:00PM</text>
                    </g>
                    <g transform="matrix(0.201045,0.108702,-0.108702,0.201045,465.712,251.71)">
                        <path d="M10877.5,3300.82L10877.2,3319.86L10794.1,3296.47L10799.1,3278.75L10859.1,3295.65L10881.1,3130.7L10899.5,3130.7L10877.5,3300.82Z" style="fill:white;"/>
                    </g>
                    <g transform="matrix(0.201045,0.108702,-0.108702,0.201045,470.836,254.219)">
                        <path d="M10852.6,3293.8L10859.1,3295.65L10881.1,3130.7L10899.5,3130.7L10877.5,3300.82L10877.2,3319.86L10852.4,3312.88L10852.6,3301.83L10852.6,3293.8Z" style="fill:white;"/>
                    </g>
                    <g transform="matrix(0.211363,0,0,0.211363,-185.752,1557.83)">
                        <g transform="matrix(189.329,0,0,189.329,11615.3,2578.91)">
                        </g>
                        <text x="10962.8px" y="2578.91px" style="font-family:'Arial-ItalicMT', 'Arial', sans-serif;font-style:italic;font-size:189.329px;fill:white;">7:01PM</text>
                    </g>
                    <g transform="matrix(0.25955,0,0,0.24,-122.129,236.032)">
                        <path d="M9446.61,8296.43L9446.61,8583.99C9446.61,8715.65 9347.77,8822.54 9226.03,8822.54L5190.09,8822.54C5068.35,8822.54 4969.51,8715.65 4969.51,8583.99L4969.51,8296.43C4969.51,8164.77 5068.35,8057.88 5190.09,8057.88L9226.03,8057.88C9347.77,8057.88 9446.61,8164.77 9446.61,8296.43Z" style="fill:rgb(33,48,64);"/>
                    </g>
                    <g transform="matrix(-0.237932,0,0,0.272736,3814.33,1414.54)">
                        <path d="M11017.8,3394.68L11092,3326.47C11092,3326.47 11194.4,3418.89 11287.4,3441.66C11316.8,3448.87 11050.2,3408.11 11017.8,3394.68Z" style="fill:rgb(35,48,63);stroke:rgb(35,48,63);stroke-width:0.94px;"/>
                    </g>
                    <g transform="matrix(2.90702,0,0,2.90702,-13519.5,-24068.4)">
                        <g transform="matrix(14.9137,0,0,14.9137,5145.93,9050.91)">
                        </g>
                        <g transform="matrix(14.9137,0,0,14.9137,5150.35,9050.91)">
                        </g>
                        <text x="5068.29px" y="9050.92px" style="font-family:'HelveticaNeue', 'Helvetica Neue';font-size:14.914px;fill:rgb(82,173,247);">https://medﬂow-mena-health.ver<tspan x="5287.08px 5295.09px " y="9050.92px 9050.92px ">ce</tspan>l.app//new-patient/</text>
                        <g transform="matrix(14.9137,0,0,14.9137,5388.59,9066.25)">
                        </g>
                        <text x="5068.29px" y="9066.25px" style="font-family:'HelveticaNeue', 'Helvetica Neue';font-size:14.914px;fill:rgb(82,173,247);">telegram/1234567891011121314151617181920</text>
                    </g>
                    <g transform="matrix(0.201045,0.108702,-0.108702,0.201045,440.739,487.742)">
                        <path d="M10877.5,3300.82L10877.2,3319.86L10794.1,3296.47L10799.1,3278.75L10859.1,3295.65L10881.1,3130.7L10899.5,3130.7L10877.5,3300.82Z" style="fill:white;"/>
                    </g>
                    <g transform="matrix(0.201045,0.108702,-0.108702,0.201045,445.863,490.251)">
                        <path d="M10852.6,3293.8L10859.1,3295.65L10881.1,3130.7L10899.5,3130.7L10877.5,3300.82L10877.2,3319.86L10852.4,3312.88L10852.6,3301.83L10852.6,3293.8Z" style="fill:white;"/>
                    </g>
                    <g transform="matrix(0.211363,0,0,0.211363,-210.725,1793.86)">
                        <g transform="matrix(189.329,0,0,189.329,11615.3,2578.91)">
                        </g>
                        <text x="10962.8px" y="2578.91px" style="font-family:'Arial-ItalicMT', 'Arial', sans-serif;font-style:italic;font-size:189.329px;fill:white;">7:01PM</text>
                    </g>
                </g>
            </g>
        </g>
    </g>
</svg>
